<svg width="15" height="15" viewBox="0 0 15 15" fill="none" xmlns="http://www.w3.org/2000/svg">
<path d="M7.43054 4.97389L7.75454 5.73172C7.77651 5.79761 7.83691 5.83605 7.89732 5.84155L8.72104 5.91843C8.89677 5.9349 8.96266 6.14907 8.83636 6.26439L8.21582 6.80804C8.1664 6.85197 8.14443 6.91787 8.16091 6.97828L8.34213 7.78552C8.38057 7.95576 8.19935 8.08755 8.04559 7.99969L7.33719 7.57685C7.28228 7.5439 7.21089 7.5439 7.15597 7.57685L6.44757 7.99969C6.2993 8.08755 6.11259 7.95576 6.15103 7.78552L6.33225 6.97828C6.34873 6.91787 6.32676 6.85197 6.27734 6.80804L5.6568 6.26439C5.52501 6.14907 5.5964 5.9349 5.77212 5.91843L6.59584 5.84155C6.66174 5.83605 6.71665 5.79761 6.74411 5.73721L7.06811 4.97939C7.13401 4.81464 7.35916 4.81464 7.43054 4.97389Z" stroke="#F0C932" stroke-width="0.549146" stroke-miterlimit="10" stroke-linecap="round" stroke-linejoin="round"/>
<path d="M10.9821 6.57996C10.9963 4.51762 9.33591 2.83426 7.27357 2.82006C5.21123 2.80587 3.52787 4.46622 3.51368 6.52856C3.49948 8.5909 5.15983 10.2743 7.22217 10.2885C9.28451 10.3026 10.9679 8.6423 10.9821 6.57996Z" stroke="#F0C932" stroke-width="0.549146" stroke-miterlimit="10" stroke-linecap="round" stroke-linejoin="round"/>
<path d="M6.73861 10.2512L5.81055 12.5851L4.63538 11.2396L2.86163 11.4044L4.03681 8.46097" stroke="#F0C932" stroke-width="0.549146" stroke-miterlimit="10" stroke-linecap="round" stroke-linejoin="round"/>
<path d="M7.74905 10.2512L8.6826 12.5851L9.85228 11.2396L11.6315 11.4044L10.4509 8.46097" stroke="#F0C932" stroke-width="0.549146" stroke-miterlimit="10" stroke-linecap="round" stroke-linejoin="round"/>
</svg>
