<svg width="8" height="8" viewBox="0 0 9 6" fill="none" xmlns="http://www.w3.org/2000/svg">
<g clip-path="url(#clip0_1_154)">
<path d="M8.10316 0.904613C7.82847 1.02178 7.53712 1.09868 7.23878 1.13277C7.54953 0.953445 7.78814 0.669474 7.90049 0.331127C7.60508 0.49991 7.28188 0.618829 6.94485 0.682745C6.67031 0.401147 6.27921 0.225159 5.84634 0.225159C5.0152 0.225159 4.34134 0.873934 4.34134 1.67412C4.34134 1.7877 4.35466 1.89827 4.38031 2.00435C3.12956 1.94391 2.02065 1.36705 1.27836 0.490396C1.14885 0.704402 1.07463 0.953334 1.07463 1.21885C1.07463 1.72157 1.34034 2.16506 1.74413 2.42491C1.50515 2.41771 1.27141 2.35556 1.06245 2.24366C1.06237 2.24973 1.06237 2.2558 1.06237 2.26189C1.06237 2.96394 1.58112 3.54959 2.26956 3.68271C2.04795 3.74074 1.81549 3.74923 1.58995 3.70754C1.78144 4.28321 2.33725 4.70211 2.99577 4.71384C2.48072 5.10245 1.83179 5.33411 1.12673 5.33411C1.00523 5.33411 0.885459 5.32724 0.767719 5.31386C1.43373 5.72499 2.22478 5.96487 3.07466 5.96487C5.84284 5.96487 7.35655 3.75692 7.35655 1.84216C7.35655 1.77931 7.35511 1.71682 7.35219 1.65469C7.64682 1.44962 7.90112 1.19562 8.10316 0.904613Z" fill="white"/>
</g>
<defs>
<clipPath id="clip0_1_154">
<rect width="7.41348" height="5.76604" fill="white" transform="translate(0.780682 0.202393)"/>
</clipPath>
</defs>
</svg>
